<svg xmlns="http://www.w3.org/2000/svg" viewBox="0 0 24 24" id="jest">
  <path fill="#99415B" d="m20.97 11.819-.001.001c0 .965-.791 1.75-1.764 1.75a1.76 1.76 0 0 1-1.762-1.753c0-.555.26-1.049.665-1.37l.004-.003.007-.007c.056-.042.119-.084.182-.125 0 0 .008 0 .008-.007.028-.014.056-.035.084-.05.007 0 .014-.006.021-.006.028-.014.063-.028.098-.042.034-.014.071-.027.099-.041.007 0 .013-.007.02-.007.028-.007.056-.021.085-.028.007 0 .02-.007.028-.007.034-.007.063-.014.098-.02h.007l.105-.022c.007 0 .02 0 .028-.007.028 0 .056-.007.084-.007h.034c.035 0 .071-.007.112-.007h.091c.028 0 .05 0 .078.007h.014c.056.007.112.014.168.028.808.176 1.405.88 1.407 1.723zM10.028 1.39h11.019l-2.529 7.4c-.105.02-.21.055-.315.09l-2.661-5.385-2.67 5.35c-.105-.034-.218-.055-.33-.076L10.028 1.39zm.168 10.423v-.005c0-.812.56-1.495 1.318-1.687l.012-.003v-.001c.034-.007.063-.014.098-.02h.02c.029-.008.056-.008.085-.015h.028c.028 0 .049-.007.077-.007h.273c.028 0 .049.007.071.007.014 0 .02 0 .035.007.027.007.048.007.077.014.007 0 .014 0 .028.007l.098.02h.007c.028.008.056.015.084.029.007 0 .014.007.028.007.021.007.049.014.071.027.007 0 .014.007.02.007.028.014.056.021.085.035h.007c.034.013.064.03.092.05l-.001-.001h.007c.028.014.056.034.085.048.007 0 .007.007.013.007.028.014.05.035.078.049l.007.007c.084.062.161.132.238.201l.007.007c.299.313.484.736.484 1.203v.007c-.033.942-.81 1.693-1.765 1.693s-1.732-.751-1.765-1.69v-.003z"></path>
  <ellipse cx="4.633" cy="11.819" fill="#99415B" rx="1.765" ry="1.751"></ellipse>
  <path fill="#99415B" d="M2.496 17.802c.168-1.015.637-1.966 1.086-2.877.028-.055.049-.104.078-.16.153.056.315.098.483.126-.266 1.473.49 2.994 1.962 3.745l.266.139.286-.104c1.226-.431 2.361-1.133 3.363-2.071a9.456 9.456 0 0 0 1.435-1.681l.022-.035c.161.027.323.034.484.034a3.138 3.138 0 0 0 3.027-2.305l.005-.022h1.176a3.136 3.136 0 0 0 3.033 2.327h.001c.581 0 1.119-.16 1.583-.43.182.52.238 1.063.14 1.605h.001a3.082 3.082 0 0 1-1.505 2.125l-.015.008c-.764.438-1.703.577-2.691.716-.658.084-1.22.186-1.771.314l.118-.023c-1.457.355-2.857 1.05-4.216 1.717-1.738.854-3.377 1.66-4.897 1.66h-.023a3.683 3.683 0 0 1-2.153-.691c-1.537-1.056-1.461-3.034-1.278-4.117z"></path>
</svg>
